<svg width="64" height="64" viewBox="0 0 64 64" xmlns="http://www.w3.org/2000/svg">
  <g fill="none" stroke="#2563eb" stroke-width="2" stroke-linecap="round" stroke-linejoin="round">
    <!-- Gear outer -->
    <path d="M32 8 L36 12 L40 8 L44 12 L48 8 L52 12 L56 16 L52 20 L56 24 L52 28 L56 32 L52 36 L56 40 L52 44 L48 56 L44 52 L40 56 L36 52 L32 56 L28 52 L24 56 L20 52 L16 48 L12 52 L8 48 L12 44 L8 40 L12 36 L8 32 L12 28 L8 24 L12 20 L8 16 L12 12 L16 8 L20 12 L24 8 L28 12 Z"/>
    <!-- Inner circle -->
    <circle cx="32" cy="32" r="8" fill="none"/>
    <!-- Center dot -->
    <circle cx="32" cy="32" r="4" fill="#10b981"/>
  </g>
</svg>
